<svg width="304" height="257" viewBox="0 0 304 257" fill="none" xmlns="http://www.w3.org/2000/svg">
<path d="M18.7328 226.453C17.727 225.822 16.7213 225.064 15.7155 224.307C15.464 224.054 15.464 223.676 15.5897 223.423C15.8412 223.171 16.2184 223.171 16.4698 223.297C18.3557 224.812 20.493 226.2 22.6303 227.21C22.8817 227.336 23.0074 227.715 22.8817 228.094C22.756 228.472 22.3788 228.472 22.0017 228.346C20.8701 227.715 19.7386 227.084 18.7328 226.453ZM10.3093 219.131L10.1836 219.005C8.54921 217.112 7.04053 215.092 5.78329 212.946C5.65757 212.694 5.65757 212.315 6.03474 212.063C6.28619 211.936 6.66336 211.936 6.91481 212.315C8.17204 214.461 9.555 216.354 11.1894 218.248C11.4409 218.5 11.4409 218.879 11.1894 219.131C10.8122 219.258 10.5608 219.258 10.3093 219.131ZM28.7907 231.123C28.5393 230.997 28.4136 230.744 28.5393 230.366C28.665 229.987 28.9165 229.861 29.2936 229.987C31.6824 230.744 34.0711 231.249 36.4599 231.502C36.8371 231.502 37.0885 231.88 36.9628 232.133C36.9628 232.512 36.5856 232.764 36.3342 232.638C33.8197 232.385 31.3052 231.88 28.9165 231.123C28.9165 231.123 28.9165 231.123 28.7907 231.123ZM2.76592 206.382C2.6402 206.256 2.51447 206.256 2.51447 206.13C1.63441 203.732 1.00579 201.333 0.628619 198.809C0.628619 198.43 0.754342 198.178 1.13151 198.051C1.50868 198.051 1.76013 198.178 1.88586 198.556C2.26303 200.955 2.89165 203.353 3.77171 205.625C3.89744 206.004 3.77171 206.256 3.39454 206.382C3.14309 206.509 2.89165 206.509 2.76592 206.382ZM43.5004 232.764C43.3747 232.638 43.249 232.512 43.249 232.259C43.249 231.88 43.5004 231.628 43.7519 231.628C46.1406 231.502 48.6551 230.997 50.9181 230.366C51.2953 230.24 51.5467 230.492 51.6725 230.744C51.7982 231.123 51.5467 231.376 51.2953 231.502C48.9065 232.133 46.3921 232.512 43.8776 232.764C43.7519 232.89 43.6261 232.764 43.5004 232.764ZM0.251447 191.74C0.125724 191.614 0 191.488 0 191.235C0 188.711 0.251447 186.186 0.754342 183.661C0.880066 183.283 1.13151 183.157 1.50868 183.157C1.88586 183.283 2.01158 183.535 2.01158 183.914C1.50868 186.312 1.25724 188.711 1.25724 191.235C1.25724 191.614 1.00579 191.866 0.628619 191.866C0.502895 191.866 0.377171 191.866 0.251447 191.74ZM57.8329 228.977C57.7072 228.977 57.7072 228.851 57.5815 228.725C57.4557 228.472 57.5815 228.094 57.8329 227.967C60.0959 226.958 62.1075 225.695 64.1191 224.181C64.3706 223.928 64.7477 224.054 64.9992 224.307C65.2506 224.559 65.1249 224.938 64.8734 225.19C62.8619 226.705 60.7246 227.967 58.3358 229.103C58.2101 229.103 57.9586 228.977 57.8329 228.977ZM3.26882 177.224C3.01737 177.098 2.89165 176.719 3.01737 176.466C4.02316 174.194 5.15467 171.922 6.53763 169.776C6.66336 169.524 7.04053 169.398 7.4177 169.65C7.66915 169.776 7.79487 170.155 7.54342 170.534C6.16046 172.553 5.02895 174.825 4.14888 177.098C4.02316 177.224 3.64599 177.476 3.26882 177.224C3.26882 177.35 3.26882 177.224 3.26882 177.224ZM69.7767 220.141C69.7767 220.141 69.6509 220.141 69.7767 220.141C69.3995 219.889 69.3995 219.51 69.6509 219.258C71.2854 217.491 72.794 215.597 74.177 213.451C74.3027 213.199 74.8056 213.073 75.0571 213.199C75.3085 213.325 75.4342 213.704 75.3085 213.956C73.9256 216.102 72.2911 218.122 70.6567 220.015C70.2796 220.268 70.0281 220.394 69.7767 220.141ZM11.1894 164.727C10.8122 164.475 10.8122 164.096 11.0637 163.844C12.8238 161.95 14.7097 160.309 16.7213 158.795C16.9727 158.542 17.3499 158.668 17.6013 158.921C17.8528 159.173 17.727 159.552 17.4756 159.804C15.464 161.193 13.7039 162.834 11.9438 164.601C11.818 164.853 11.4409 164.98 11.1894 164.727ZM77.823 207.645C77.5715 207.519 77.4458 207.14 77.5715 206.887C78.4516 204.615 79.206 202.217 79.7088 199.819C79.8346 199.44 80.086 199.314 80.4632 199.314C80.8404 199.44 80.9661 199.692 80.9661 200.071C80.4632 202.596 79.7088 204.994 78.8288 207.266C78.5773 207.645 78.2002 207.771 77.823 207.645ZM23.1332 156.018C23.0074 156.018 23.0074 155.891 22.8817 155.765C22.756 155.513 22.8817 155.134 23.1332 155.008C25.3962 153.872 27.7849 152.988 30.1737 152.357C30.5509 152.231 30.8023 152.483 30.928 152.736C31.0538 153.114 30.8023 153.367 30.5509 153.493C28.1621 154.124 25.8991 155.008 23.6361 156.018C23.5103 156.144 23.2589 156.144 23.1332 156.018ZM80.7146 193.129C80.5889 193.002 80.4632 192.876 80.4632 192.624C80.4632 190.225 80.3375 187.701 79.8346 185.302C79.8346 184.924 79.9603 184.671 80.3375 184.545C80.7146 184.545 80.9661 184.671 81.0918 185.05C81.469 187.575 81.7204 190.099 81.7204 192.624C81.7204 193.002 81.469 193.255 81.0918 193.255C80.9661 193.129 80.8404 193.129 80.7146 193.129ZM37.4657 152.231C37.3399 152.104 37.2142 151.978 37.2142 151.726C37.2142 151.347 37.4657 151.095 37.7171 151.095C40.2316 150.842 42.7461 150.968 45.2605 151.221C45.6377 151.221 45.8892 151.6 45.7634 151.852C45.7634 152.231 45.3863 152.483 45.1348 152.357C42.7461 152.104 40.2316 152.104 37.8428 152.231C37.7171 152.357 37.5914 152.231 37.4657 152.231ZM52.1754 153.745C51.9239 153.619 51.7982 153.367 51.9239 153.114C52.0496 152.736 52.3011 152.609 52.6782 152.736C55.067 153.493 57.4557 154.377 59.7188 155.639C59.9702 155.765 60.0959 156.144 59.9702 156.522C59.8445 156.775 59.4673 156.901 59.0902 156.775C56.9529 155.639 54.6898 154.755 52.3011 153.998C52.1753 153.872 52.1754 153.872 52.1754 153.745Z" fill="#B2C1E8"/>
<path d="M168.218 57.8125H146.217V54.2782L157.28 48.4717L168.344 54.2782V57.8125H168.218ZM146.468 57.5601H168.093V54.2782L157.28 48.5979L146.468 54.2782V57.5601Z" fill="#B2C1E8"/>
<path d="M166.961 56.5504H147.474V55.0357L157.281 49.8604L167.087 55.0357V56.5504H166.961ZM147.726 56.298H166.836V55.1619L157.281 50.1128L147.726 55.1619V56.298Z" fill="#B2C1E8"/>
<path d="M151.874 59.8319H147.726V57.686H151.874V59.8319ZM147.851 59.5795H151.623V57.8123H147.851V59.5795Z" fill="#B2C1E8"/>
<path d="M150.994 68.9205H148.479V59.5796H150.994V68.9205ZM148.605 68.668H150.743V59.832H148.605V68.668Z" fill="#B2C1E8"/>
<path d="M167.464 70.9401H146.845V68.668H167.464V70.9401ZM146.971 70.8138H167.212V68.9204H146.971V70.8138Z" fill="#B2C1E8"/>
<path d="M166.835 59.8319H162.687V57.686H166.835V59.8319ZM162.812 59.5795H166.584V57.8123H162.812V59.5795Z" fill="#B2C1E8"/>
<path d="M165.955 68.9205H163.441V59.5796H165.955V68.9205ZM163.567 68.668H165.704V59.832H163.567V68.668Z" fill="#B2C1E8"/>
<path d="M157.532 67.5322H156.652V66.5224C156.149 66.5224 155.52 66.27 155.143 66.0175L155.395 65.1339L155.52 65.2601C155.897 65.5126 156.4 65.6388 156.903 65.6388C157.532 65.6388 158.035 65.2601 158.035 64.7552C158.035 64.2503 157.783 63.9979 156.903 63.6192C156.023 63.2405 155.143 62.7356 155.143 61.7257C155.143 60.8422 155.772 60.211 156.652 59.9586V58.9487H157.532V59.9586C158.035 59.9586 158.412 60.0848 158.789 60.3372H158.915L158.538 61.2208H158.412C158.286 61.0946 157.783 60.8422 157.155 60.8422C156.4 60.8422 156.149 61.2208 156.149 61.5995C156.149 62.1044 156.4 62.2307 157.28 62.6093C158.412 63.1143 158.915 63.6192 158.915 64.5028C158.915 65.2601 158.412 66.1437 157.28 66.27V67.5322H157.532ZM156.903 67.2798H157.28V66.27H157.406C158.412 66.1437 158.915 65.3864 158.915 64.629C158.915 63.8716 158.538 63.2405 157.406 62.8618C156.526 62.4831 156.149 62.2307 156.149 61.5995C156.149 61.0946 156.526 60.5897 157.28 60.5897C157.909 60.5897 158.286 60.7159 158.538 60.8422L158.663 60.3372C158.286 60.211 157.909 60.0848 157.406 60.0848H157.28V59.075H156.903V60.0848H156.777C155.897 60.211 155.395 60.8422 155.395 61.5995C155.395 62.3569 155.897 62.8618 157.029 63.2405C157.909 63.6192 158.286 63.9979 158.286 64.5028C158.286 65.1339 157.783 65.6388 157.029 65.6388C156.526 65.6388 156.023 65.5126 155.646 65.2601L155.52 65.765C155.897 66.0175 156.4 66.1437 156.903 66.1437H157.029V67.2798H156.903Z" fill="#B2C1E8"/>
<path d="M170.984 249.553V248.416C170.356 248.416 169.601 248.164 169.224 247.912L169.476 247.154C169.853 247.407 170.481 247.659 171.11 247.659C171.864 247.659 172.493 247.154 172.493 246.523C172.493 245.892 172.116 245.513 171.236 245.135C170.104 244.63 169.35 244.125 169.35 243.241C169.35 242.358 169.978 241.6 170.984 241.474V240.338H171.739V241.474C172.367 241.474 172.87 241.726 173.247 241.853L172.996 242.61C172.744 242.484 172.241 242.231 171.613 242.231C170.733 242.231 170.481 242.736 170.481 243.241C170.481 243.872 170.859 244.125 171.864 244.503C172.996 245.008 173.624 245.513 173.624 246.523C173.624 247.407 172.996 248.29 171.864 248.416V249.553H170.984Z" fill="#B2C1E8"/>
<path d="M171.361 251.698C167.59 251.698 164.572 248.669 164.572 244.882C164.572 241.095 167.59 238.066 171.361 238.066C175.133 238.066 178.15 241.095 178.15 244.882C178.15 248.669 175.133 251.698 171.361 251.698ZM171.361 238.318C167.715 238.318 164.824 241.222 164.824 244.882C164.824 248.543 167.715 251.446 171.361 251.446C175.007 251.446 177.899 248.543 177.899 244.882C177.899 241.222 174.882 238.318 171.361 238.318Z" fill="#B2C1E8"/>
<path d="M296.834 142.763V141.627C296.205 141.627 295.451 141.375 295.074 141.122L295.325 140.365C295.702 140.618 296.331 140.87 296.96 140.87C297.714 140.87 298.343 140.365 298.343 139.734C298.343 139.103 297.965 138.724 297.085 138.345C295.954 137.841 295.199 137.336 295.199 136.452C295.199 135.568 295.828 134.811 296.834 134.685V133.549H297.588V134.685C298.217 134.685 298.72 134.937 299.097 135.064L298.845 135.821C298.594 135.695 298.091 135.442 297.462 135.442C296.582 135.442 296.331 135.947 296.331 136.452C296.331 137.083 296.708 137.336 297.714 137.714C298.845 138.219 299.474 138.724 299.474 139.734C299.474 140.618 298.845 141.501 297.714 141.627V142.763H296.834Z" fill="#B2C1E8"/>
<path d="M297.211 144.909C293.439 144.909 290.422 141.88 290.422 138.093C290.422 134.306 293.439 131.277 297.211 131.277C300.983 131.277 304 134.306 304 138.093C304 141.88 300.983 144.909 297.211 144.909ZM297.211 131.529C293.565 131.529 290.673 134.433 290.673 138.093C290.673 141.754 293.565 144.657 297.211 144.657C300.857 144.657 303.749 141.754 303.749 138.093C303.749 134.433 300.731 131.529 297.211 131.529Z" fill="#B2C1E8"/>
<path d="M277.975 111.207H251.95V97.0693H277.975V111.207ZM252.327 110.828H277.724V97.448H252.327V110.828Z" fill="#B2C1E8"/>
<path d="M273.198 109.187H256.854V109.061C256.854 107.546 255.596 106.41 254.213 106.41H253.962V101.992H254.088C255.596 101.992 256.728 100.73 256.728 99.3416V99.2153H273.072V99.3416C273.072 100.856 274.329 101.992 275.712 101.992H275.838V106.41H275.712C274.203 106.41 273.072 107.673 273.072 109.061V109.187H273.198ZM257.105 108.935H272.82C272.946 107.42 274.078 106.158 275.712 106.032V102.245C274.203 102.119 272.946 100.983 272.82 99.3416H256.979C256.854 100.856 255.722 102.119 254.088 102.245V106.032C255.722 106.158 256.979 107.294 257.105 108.935Z" fill="#B2C1E8"/>
<path d="M266.785 106.41H263.139C261.882 106.41 260.876 105.4 260.876 104.138C260.876 102.876 261.882 101.866 263.139 101.866H266.785C268.043 101.866 269.048 102.876 269.048 104.138C269.048 105.4 268.043 106.41 266.785 106.41ZM263.139 102.118C262.008 102.118 261.128 103.002 261.128 104.138C261.128 105.274 262.008 106.157 263.139 106.157H266.785C267.917 106.157 268.797 105.274 268.797 104.138C268.797 103.002 267.917 102.118 266.785 102.118H263.139Z" fill="#B2C1E8"/>
<path d="M257.482 105.779C256.602 105.779 255.848 105.022 255.848 104.138C255.848 103.254 256.602 102.497 257.482 102.497C258.362 102.497 259.116 103.254 259.116 104.138C259.116 105.022 258.362 105.779 257.482 105.779ZM257.482 102.876C256.728 102.876 256.225 103.507 256.225 104.138C256.225 104.769 256.853 105.4 257.482 105.4C258.236 105.4 258.739 104.769 258.739 104.138C258.739 103.507 258.236 102.876 257.482 102.876Z" fill="#B2C1E8"/>
<path d="M272.317 105.779C271.437 105.779 270.683 105.022 270.683 104.138C270.683 103.254 271.437 102.497 272.317 102.497C273.198 102.497 273.952 103.254 273.952 104.138C273.952 105.022 273.198 105.779 272.317 105.779ZM272.317 102.876C271.563 102.876 271.06 103.507 271.06 104.138C271.06 104.769 271.689 105.4 272.317 105.4C273.072 105.4 273.575 104.769 273.575 104.138C273.575 103.507 273.072 102.876 272.317 102.876Z" fill="#B2C1E8"/>
<path d="M282.376 219.51V219.384C281.496 217.491 279.861 215.976 277.724 215.471H277.598L278.855 210.801H278.981C282.501 211.684 285.393 214.209 286.776 217.491V217.617L282.376 219.51ZM277.85 215.219C279.861 215.724 281.621 217.238 282.376 219.132L286.273 217.365C284.89 214.335 282.124 211.937 278.855 211.053L277.85 215.219Z" fill="#B2C1E8"/>
<path d="M273.449 236.173C267.037 236.173 261.757 230.871 261.757 224.434C261.757 217.996 267.037 212.694 273.449 212.694C274.329 212.694 275.335 212.821 276.341 213.073H276.467L275.209 217.743H275.084C274.581 217.617 273.952 217.491 273.449 217.491C269.677 217.491 266.66 220.52 266.66 224.307C266.66 228.094 269.677 231.124 273.449 231.124C274.455 231.124 275.461 230.871 276.467 230.366L276.592 230.24L278.855 234.532L278.73 234.658C277.095 235.794 275.335 236.173 273.449 236.173ZM273.449 213.073C267.163 213.073 262.134 218.122 262.134 224.434C262.134 230.745 267.163 235.794 273.449 235.794C275.209 235.794 276.844 235.415 278.352 234.658L276.467 230.871C275.461 231.376 274.455 231.502 273.449 231.502C269.552 231.502 266.409 228.347 266.409 224.434C266.409 220.52 269.552 217.365 273.449 217.365C273.952 217.365 274.455 217.365 274.958 217.491L275.964 213.325C275.209 213.199 274.329 213.073 273.449 213.073Z" fill="#B2C1E8"/>
<path d="M279.61 234.406L276.97 230.366L277.095 230.24C279.107 228.978 280.239 226.832 280.239 224.434C280.239 223.55 279.987 222.54 279.61 221.657V221.53L284.01 219.511V219.637C284.639 221.152 285.016 222.666 285.016 224.307C285.016 228.347 283.004 232.007 279.61 234.153V234.406ZM277.347 230.366L279.61 233.901C282.753 231.755 284.765 228.22 284.765 224.434C284.765 222.919 284.513 221.404 283.885 220.016L279.987 221.783C280.364 222.666 280.49 223.55 280.49 224.434C280.616 226.832 279.358 229.104 277.347 230.366Z" fill="#B2C1E8"/>
<path d="M15.9668 119.159H19.1099V129.384H15.9668V119.159ZM18.8584 119.538H16.344V129.131H18.8584V119.538Z" fill="#B2C1E8"/>
<path d="M20.8701 121.684H24.0132V129.383H20.8701V121.684ZM23.7618 121.936H21.2473V129.005H23.7618V121.936Z" fill="#B2C1E8"/>
<path d="M11.064 115.499H14.2071V129.257H11.064V115.499ZM13.9556 115.877H11.4411V129.131H13.9556V115.877Z" fill="#B2C1E8"/>
<path d="M6.16064 112.595H9.30374V129.384H6.16064V112.595ZM9.05229 112.848H6.53782V129.005H9.05229V112.848Z" fill="#B2C1E8"/>
<path d="M4.90332 108.051V107.925C4.90332 107.799 5.02904 107.799 5.15477 107.925L27.4079 121.179C27.5336 121.179 27.5336 121.305 27.4079 121.431C27.4079 121.557 27.2821 121.557 27.1564 121.431L4.90332 108.051C5.02904 108.051 4.90332 108.051 4.90332 108.051Z" fill="#B2C1E8"/>
<path d="M25.145 122.188C25.145 122.062 25.145 122.062 25.145 122.188C25.145 122.062 25.145 121.936 25.2707 121.936L27.7852 121.557L26.4023 119.285C26.4023 119.159 26.4023 119.159 26.4023 119.033C26.528 119.033 26.528 119.033 26.6537 119.033L28.1624 121.557V121.683L28.0367 121.81L25.2707 122.188H25.145Z" fill="#B2C1E8"/>
<path d="M254.716 38.2469H251.573V28.0225H254.716V38.2469ZM251.95 37.8682H254.465V28.2749H251.95V37.8682Z" fill="#B2C1E8"/>
<path d="M249.939 38.2471H246.795V24.4883H249.939V38.2471ZM247.047 37.8684H249.561V24.7407H247.047V37.8684Z" fill="#B2C1E8"/>
<path d="M231.96 28.0225H235.103V38.2469H231.96V28.0225ZM234.852 28.2749H232.337V37.8682H234.852V28.2749Z" fill="#B2C1E8"/>
<path d="M236.863 24.4883H240.006V38.2471H236.863V24.4883ZM239.755 24.7407H237.24V37.8684H239.755V24.7407Z" fill="#B2C1E8"/>
<path d="M245.036 38.2468H241.893V20.7012H245.036V38.2468ZM242.144 37.8682H244.659V21.0799H242.144V37.8682Z" fill="#B2C1E8"/>
<path d="M243.401 18.4292L253.962 22.7209C254.088 22.7209 254.088 22.8472 254.088 22.9734C254.088 23.0996 253.962 23.0996 253.836 23.0996L243.275 18.8079L231.834 23.4783C231.709 23.4783 231.709 23.4783 231.583 23.3521C231.583 23.2259 231.583 23.2259 231.709 23.0996L243.401 18.4292C243.275 18.4292 243.275 18.4292 243.401 18.4292Z" fill="#B2C1E8"/>
<path d="M251.825 23.6044C251.825 23.4782 251.825 23.4782 251.825 23.6044C251.825 23.4782 251.825 23.352 251.95 23.352H254.465L253.459 20.9536C253.459 20.8274 253.459 20.8274 253.585 20.7012C253.711 20.7012 253.711 20.7012 253.836 20.8274L254.968 23.4782V23.6044L254.842 23.7306H252.076C251.825 23.6044 251.825 23.6044 251.825 23.6044Z" fill="#B2C1E8"/>
<path d="M154.766 21.2062C149.36 21.2062 145.085 16.7882 145.085 11.4866C145.085 6.05884 149.485 1.76709 154.766 1.76709C160.046 1.76709 164.446 6.18507 164.446 11.4866C164.446 16.7882 160.172 21.2062 154.766 21.2062ZM154.766 1.89332C149.611 1.89332 145.336 6.18507 145.336 11.3604C145.336 16.5358 149.611 20.8275 154.766 20.8275C159.92 20.8275 164.195 16.5358 164.195 11.3604C164.195 6.18507 159.92 1.89332 154.766 1.89332Z" fill="#B2C1E8"/>
<path d="M154.766 17.1672C151.623 17.1672 148.982 14.6426 148.982 11.3607C148.982 8.07876 151.497 5.5542 154.766 5.5542C157.909 5.5542 160.549 8.07876 160.549 11.3607C160.549 14.6426 157.909 17.1672 154.766 17.1672ZM154.766 5.93288C151.748 5.93288 149.36 8.33121 149.36 11.3607C149.36 14.3902 151.748 16.7885 154.766 16.7885C157.783 16.7885 160.172 14.3902 160.172 11.3607C160.172 8.33121 157.783 5.93288 154.766 5.93288Z" fill="#B2C1E8"/>
<path d="M154.766 14.011C153.257 14.011 152.125 12.875 152.125 11.3603C152.125 9.84552 153.257 8.70947 154.766 8.70947C156.274 8.70947 157.406 9.84552 157.406 11.3603C157.406 12.875 156.274 14.011 154.766 14.011ZM154.766 9.08816C153.508 9.08816 152.377 10.098 152.377 11.4865C152.377 12.875 153.383 13.8848 154.766 13.8848C156.023 13.8848 157.154 12.875 157.154 11.4865C157.154 10.098 156.023 9.08816 154.766 9.08816Z" fill="#B2C1E8"/>
<path d="M154.766 11.3606L139.553 3.282C139.428 3.282 139.428 3.15578 139.428 3.02955C139.428 2.90332 139.553 2.90332 139.679 2.90332L154.892 10.9819C155.017 10.9819 155.017 11.1081 155.017 11.2344C154.892 11.3606 154.766 11.3606 154.766 11.3606Z" fill="#B2C1E8"/>
<path d="M143.073 4.5442C143.073 4.5442 142.948 4.5442 142.948 4.41798L141.942 2.2721L139.553 0.504912L140.433 2.77701C140.433 2.90324 140.433 2.90324 140.308 3.02947C140.182 3.02947 140.182 3.02947 140.056 2.90324L139.05 0.126228C139.05 0 139.05 0 139.05 0H139.176L142.068 2.14587L143.073 4.29175C143.199 4.41798 143.199 4.5442 143.073 4.5442Z" fill="#B2C1E8"/>
<path d="M140.559 5.80627L137.039 4.67022C136.913 4.67022 136.913 4.54399 136.913 4.54399C136.913 4.41776 136.913 4.41776 137.039 4.41776L139.679 3.78662C139.805 3.78662 139.805 3.78662 139.805 3.91285C139.805 4.03908 139.805 4.03908 139.679 4.03908L137.667 4.54399L140.559 5.42758L142.696 5.17513C142.822 5.17513 142.822 5.17513 142.822 5.30136C142.822 5.42758 142.822 5.42758 142.696 5.42758L140.559 5.80627Z" fill="#B2C1E8"/>
<path d="M125.221 28.9058C131.507 73.0855 146.342 115.246 169.098 153.24C152.377 163.212 135.656 173.058 118.934 183.03C92.5325 139.103 75.3083 90.2525 68.1421 39.2564C87.1264 35.7221 106.111 32.3139 125.221 28.9058Z" fill="#2D55B9"/>
<path d="M158.16 156.27C147.725 162.329 137.165 168.514 126.729 174.573C124.341 170.533 119.437 169.019 115.666 171.038C94.7956 133.675 80.4631 92.9033 73.0454 50.4907C77.32 49.6071 80.0859 45.0629 79.3316 40.5187C91.1496 38.2466 103.093 36.1007 114.911 33.8286C115.54 38.1204 119.563 40.7711 123.838 39.8876C130.25 77.1248 142.948 112.847 161.178 145.793C157.406 147.812 156.023 152.609 158.16 156.27Z" fill="#89B1FF"/>
<path d="M105.608 81.5429C116.169 78.3872 126.981 84.1937 130.501 94.2919C133.896 104.39 129.118 115.877 118.935 120.295C108.751 124.713 96.8072 119.285 92.9098 108.051C89.0124 96.6903 95.0471 84.6986 105.608 81.5429Z" fill="#2D528D"/>
<path d="M127.484 96.4377C126.352 96.9426 125.22 97.3213 124.089 97.8262C124.592 99.3409 124.843 100.982 124.969 102.37C125.095 103.506 124.215 104.516 123.083 104.769H122.957C121.7 104.895 120.569 104.011 120.569 102.749C120.569 101.487 120.317 99.972 119.814 98.5835C119.06 96.5639 117.803 95.4278 116.42 96.059C115.037 96.5639 114.66 98.0786 114.785 101.108C114.911 105.4 114.283 108.808 110.888 110.196C107.871 111.459 104.476 110.196 102.213 106.536C101.082 107.041 99.95 107.419 98.8185 107.924C98.3156 106.662 97.9384 105.526 97.4355 104.264C98.4413 103.885 99.4471 103.506 100.579 103.002C100.201 101.613 99.95 100.477 99.8243 99.4671C99.6986 98.2049 100.579 97.0688 101.71 96.9426C102.967 96.8163 103.973 97.8262 104.099 99.0884C104.225 100.098 104.35 101.234 104.853 102.497C105.733 104.895 106.991 105.274 107.996 104.895C109.128 104.39 109.379 102.875 109.379 99.3409C109.254 94.418 110.637 91.8935 113.905 90.7574C117.048 89.6214 120.569 90.8836 122.706 94.6705C123.963 94.1656 125.095 93.7869 126.352 93.282C126.729 94.1656 127.106 95.3016 127.484 96.4377Z" fill="url(#paint0_linear)"/>
<path d="M122.203 125.344C126.227 134.811 130.753 144.152 135.656 153.24C134.022 154.124 132.387 155.007 130.627 155.891C125.724 146.676 121.072 137.209 117.049 127.616C118.683 126.858 120.443 126.101 122.203 125.344Z" fill="#2D528D"/>
<path d="M98.4415 45.5679C100.202 55.7923 102.465 66.0168 105.105 75.9888C103.345 76.4937 101.459 76.9986 99.6987 77.6298C97.0585 67.5315 94.7955 57.1808 92.9097 46.8302C94.7955 46.3252 96.6814 45.9466 98.4415 45.5679Z" fill="#2D528D"/>
<path d="M60.0958 52.5107C91.401 80.4071 128.49 101.74 169.601 115.372C161.806 132.539 154.011 149.706 146.217 166.747C98.693 151.095 55.8212 126.354 19.6128 94.166C33.0652 80.2809 46.6434 66.3958 60.0958 52.5107Z" fill="#2D55B9"/>
<path d="M162.435 124.082C157.532 134.811 152.503 145.414 147.6 156.144C143.325 154.629 138.296 156.522 136.41 160.309C97.1843 146.046 61.4788 125.47 30.2993 99.4675C33.1909 96.3118 32.8137 91.3889 29.5449 88.4857C37.8427 79.7759 46.2662 71.0662 54.564 62.3565C57.5813 65.0073 62.4845 64.5024 65.5019 61.3467C92.784 84.1939 124.341 102.245 158.663 114.867C156.777 118.528 158.412 122.693 162.435 124.082Z" fill="#89B1FF"/>
<path d="M75.3085 101.992C81.9718 93.4083 94.2928 91.1362 103.093 96.1853C111.894 101.361 114.66 112.469 109.002 121.81C103.345 131.024 90.3953 134.306 80.4632 128.626C70.6567 122.819 68.5194 110.575 75.3085 101.992Z" fill="#2D55B9"/>
<path d="M101.962 99.5934C101.333 100.603 100.704 101.613 100.076 102.497C101.333 103.254 102.59 104.264 103.47 105.147C104.225 105.905 104.099 107.167 103.345 107.924L103.219 108.051C102.339 108.934 100.83 108.934 100.076 108.051C99.1957 107.167 98.1899 106.283 96.9327 105.652C95.1726 104.642 93.4124 104.642 92.6581 105.905C91.9038 107.041 92.4067 108.429 94.2925 110.449C97.0584 113.478 98.4414 116.255 96.5555 119.285C94.7954 122.062 91.4009 123.198 87.3777 121.809C86.7491 122.819 86.1205 123.829 85.4919 124.713C84.3603 124.082 83.2288 123.45 82.223 122.946C82.8517 122.062 83.4803 121.178 83.9832 120.169C82.8517 119.411 81.9716 118.78 81.2172 118.023C80.3372 117.139 80.4629 115.877 81.343 115.119C82.223 114.362 83.7317 114.362 84.6118 115.246C85.2404 115.877 86.1205 116.634 87.252 117.265C89.3893 118.401 90.6465 117.896 91.2751 117.139C91.9038 116.129 91.1494 114.867 89.1378 112.342C86.1205 108.808 85.7433 106.283 87.7549 103.506C89.6407 100.729 93.161 99.5934 97.1842 100.982C97.9385 99.972 98.5671 98.836 99.3215 97.8262C99.9501 98.4573 100.956 98.9622 101.962 99.5934Z" fill="#89B4FF"/>
<path d="M114.66 123.451C123.586 127.869 132.764 131.782 142.193 135.442C141.313 137.083 140.559 138.724 139.679 140.365C130.124 136.705 120.82 132.665 111.768 128.247C112.774 126.606 113.78 125.092 114.66 123.451Z" fill="#2D528D"/>
<path d="M85.6179 26.3813C108.751 62.1038 139.051 92.7772 175.133 116.634C163.441 131.782 151.749 146.929 139.931 162.203C98.316 134.559 63.1134 99.0886 36.46 57.8121C52.804 47.3352 69.2739 36.8583 85.6179 26.3813Z" fill="#2D55B9"/>
<path d="M166.081 123.577C158.663 133.044 151.245 142.385 143.953 151.852C140.182 149.327 135.027 149.832 132.261 153.24C98.19 129.131 68.8963 99.5935 45.5117 65.7645C49.1577 63.2399 49.912 58.317 47.5233 54.5302C57.5812 47.9663 67.7648 41.2763 77.9484 34.7124C80.2115 38.1206 84.989 38.8779 88.635 36.4796C109.254 66.1431 134.901 92.1461 164.824 113.352C162.058 116.508 162.686 121.178 166.081 123.577Z" fill="#89B1FF"/>
<path d="M87.881 79.6496C96.5559 72.7071 108.877 73.4645 116.043 80.7857C123.209 88.1069 123.084 99.9723 115.414 107.798C107.745 115.625 94.4186 115.625 86.3723 107.42C78.326 99.2149 79.3318 86.4659 87.881 79.6496Z" fill="#2D55B9"/>
<path d="M114.157 83.8148C113.277 84.6984 112.397 85.4558 111.517 86.3394C112.523 87.4754 113.528 88.7377 114.031 89.8738C114.534 90.8836 114.157 92.0196 113.151 92.6508C113.151 92.6508 113.026 92.6508 113.026 92.777C111.894 93.4082 110.511 93.0295 110.008 92.0196C109.505 90.8836 108.625 89.7475 107.619 88.7377C106.111 87.3492 104.476 86.8443 103.345 87.8541C102.339 88.8639 102.465 90.2525 103.722 92.9032C105.608 96.5638 106.236 99.7195 103.596 102.37C101.207 104.642 97.6872 104.895 94.167 102.623C93.2869 103.506 92.4068 104.264 91.5268 105.147C90.6467 104.264 89.7666 103.38 88.7608 102.497C89.5152 101.739 90.3953 100.982 91.1496 100.224C90.1438 99.2146 89.5152 98.2048 89.0123 97.4474C88.3837 96.4376 88.7608 95.1753 89.8924 94.5442C91.0239 93.9131 92.4068 94.418 92.9097 95.4278C93.2869 96.1852 94.0412 97.195 94.9213 98.0786C96.6814 99.8458 98.0644 99.5933 98.8187 98.836C99.6988 97.9524 99.3216 96.5638 97.9387 93.4082C95.9271 89.2426 96.1785 86.4656 98.693 84.1935C101.207 81.9214 104.853 81.669 108.374 84.0673C109.254 83.1837 110.26 82.3001 111.14 81.4165C112.523 82.1739 113.403 83.0575 114.157 83.8148Z" fill="#89B4FF"/>
<path d="M60.8501 126.354C60.8501 126.354 65.7533 134.685 70.2794 134.811C74.8054 134.937 81.5945 130.898 81.5945 130.898C81.5945 130.898 85.7434 119.79 82.9775 115.498C82.9775 115.498 80.2116 113.984 77.1942 116.634C76.6913 117.139 76.1884 117.644 75.6855 118.401C74.9312 119.411 74.1768 120.042 73.2967 120.295C70.1537 121.431 66.2562 118.654 64.8733 121.431C63.9932 122.946 63.1131 124.208 62.3588 124.965C61.4787 125.849 60.8501 126.354 60.8501 126.354Z" fill="#DCE7F6"/>
<path d="M131.13 248.164C131.13 248.164 143.199 142.258 76.1885 134.811C76.1885 134.811 24.2646 147.181 37.2142 248.164H131.13Z" fill="#DCE7F6"/>
<path d="M84.738 136.326C84.738 136.326 72.2913 139.734 68.3939 137.714C68.3939 137.714 67.7652 131.403 73.0456 132.286C76.6916 132.918 78.9547 130.772 80.3376 130.014C82.3492 128.752 85.2409 133.675 84.738 136.326Z" fill="#7DA0D4"/>
<path d="M73.9255 126.859C74.6799 127.616 77.1944 116.634 77.1944 116.634C76.6915 117.139 76.1886 117.644 75.6857 118.401C74.9313 119.411 74.177 120.042 73.2969 120.295C73.2969 120.674 73.0455 126.101 73.9255 126.859Z" fill="#BCD7FF"/>
<path d="M62.3589 124.966C62.4846 125.092 68.2679 129.257 69.148 129.257C69.9023 129.257 64.8734 121.431 64.8734 121.431C63.9933 122.946 63.1132 124.082 62.3589 124.966Z" fill="#BCD7FF"/>
<path d="M184.562 248.416H104.853C98.8188 248.416 93.9155 243.493 93.9155 237.434V57.0546C93.9155 50.9956 98.8188 46.0728 104.853 46.0728H184.688C190.723 46.0728 195.626 50.9956 195.626 57.0546V237.308C195.626 243.493 190.723 248.416 184.562 248.416Z" fill="#4B96CD"/>
<path d="M95.0474 236.172V58.6957C95.0474 52.763 99.8249 47.9663 105.734 47.9663H183.808C189.717 47.9663 194.495 52.763 194.495 58.6957V236.172C194.495 242.105 189.717 246.901 183.808 246.901H105.734C99.8249 246.775 95.0474 241.979 95.0474 236.172Z" fill="#062758"/>
<path d="M137.416 54.025C136.788 54.025 136.285 53.5201 136.285 52.889C136.285 52.2578 136.788 51.7529 137.416 51.7529H152C152.629 51.7529 153.132 52.2578 153.132 52.889C153.132 53.5201 152.629 54.025 152 54.025H137.416Z" fill="#4B96CD"/>
<path d="M129.621 54.025C128.993 54.025 128.49 53.5201 128.49 52.889C128.49 52.2578 128.993 51.7529 129.621 51.7529C130.25 51.7529 130.753 52.2578 130.753 52.889C130.753 53.5201 130.25 54.025 129.621 54.025Z" fill="#4B96CD"/>
<path d="M133.77 54.025C133.142 54.025 132.639 53.5201 132.639 52.889C132.639 52.2578 133.142 51.7529 133.77 51.7529C134.399 51.7529 134.902 52.2578 134.902 52.889C134.902 53.5201 134.399 54.025 133.77 54.025Z" fill="#4B96CD"/>
<path d="M159.795 54.025C159.166 54.025 158.664 53.5201 158.664 52.889C158.664 52.2578 159.166 51.7529 159.795 51.7529C160.424 51.7529 160.927 52.2578 160.927 52.889C160.927 53.5201 160.424 54.025 159.795 54.025Z" fill="#4B96CD"/>
<path d="M155.646 54.025C155.018 54.025 154.515 53.5201 154.515 52.889C154.515 52.2578 155.018 51.7529 155.646 51.7529C156.275 51.7529 156.778 52.2578 156.778 52.889C156.778 53.5201 156.275 54.025 155.646 54.025Z" fill="#4B96CD"/>
<path d="M182.928 49.8594H168.596C166.333 49.8594 164.321 51.3741 163.692 53.52L163.441 54.4036C162.812 56.6757 160.675 58.3166 158.161 58.3166H131.004C128.616 58.3166 126.478 56.6757 125.724 54.4036L125.472 53.52C124.844 51.3741 122.832 49.8594 120.569 49.8594H107.745C102.214 49.8594 97.6875 54.4036 97.6875 59.9576V234.657C97.6875 239.832 101.962 244.124 107.117 244.124H183.054C187.831 244.124 191.603 240.337 191.603 235.541V58.6953C191.729 53.7724 187.831 49.8594 182.928 49.8594Z" fill="#F5F9FF"/>
<path d="M97.939 130.646V234.657C97.939 239.833 102.214 244.124 107.368 244.124H145.965H183.305C188.083 244.124 191.855 240.338 191.855 235.541V130.646H97.939Z" fill="#DFEBFA"/>
<path d="M195.626 90H196.004C196.129 90 196.255 90.1262 196.255 90.2525V112.973C196.255 113.1 196.129 113.226 196.004 113.226H195.626V90Z" fill="#375A64"/>
<path d="M93.79 104.39H93.2871C93.1614 104.39 93.0356 104.516 93.0356 104.643V118.906C93.0356 119.033 93.1614 119.159 93.2871 119.159H93.79V104.39Z" fill="#375A64"/>
<path d="M93.79 85.0771H93.2871C93.1614 85.0771 93.0356 85.2034 93.0356 85.3296V99.5934C93.0356 99.7196 93.1614 99.8458 93.2871 99.8458H93.79V85.0771Z" fill="#375A64"/>
<path d="M93.7903 70.687H93.4131C93.2874 70.687 93.1616 70.8132 93.1616 70.9395V77.3771C93.1616 77.5033 93.2874 77.6296 93.4131 77.6296H93.7903V70.687Z" fill="#375A64"/>
<path d="M176.39 111.459H112.9C111.894 111.459 111.014 110.576 111.014 109.566V72.8334C111.014 71.8235 111.894 70.9399 112.9 70.9399H176.39C177.396 70.9399 178.276 71.8235 178.276 72.8334V109.566C178.276 110.576 177.396 111.459 176.39 111.459Z" fill="#F598A4"/>
<path d="M178.402 95.9331H111.14V105.526H178.402V95.9331Z" fill="#F2737E"/>
<path d="M172.367 77.5039C172.367 77.1252 172.242 76.7465 171.99 76.4941C171.864 76.3679 171.739 76.3679 171.739 76.4941L171.613 76.6203C171.613 76.7465 171.487 76.7465 171.613 76.8728C171.739 77.1252 171.864 77.3777 171.864 77.6301C171.864 77.8826 171.739 78.1351 171.613 78.3875C171.613 78.5137 171.613 78.5137 171.613 78.64L171.739 78.7662C171.864 78.8924 171.99 78.8924 171.99 78.7662C172.242 78.2613 172.367 78.0088 172.367 77.5039Z" fill="#F2737E"/>
<path d="M173.247 77.504C173.247 76.8728 172.996 76.2417 172.619 75.7368C172.493 75.6105 172.367 75.6105 172.367 75.7368C172.242 75.863 172.242 75.863 172.367 75.9892C172.744 76.3679 172.87 76.8728 172.87 77.3777C172.87 77.8826 172.619 78.3875 172.367 78.8925C172.367 79.0187 172.367 79.0187 172.367 79.1449C172.493 79.2711 172.619 79.2711 172.619 79.1449C173.122 78.7662 173.373 78.2613 173.247 77.504Z" fill="#F2737E"/>
<path d="M174.128 77.504C174.128 76.6204 173.75 75.863 173.248 75.2319C173.122 75.1057 172.996 75.1057 172.996 75.2319C172.87 75.3581 172.87 75.3581 172.996 75.4843C173.499 75.9892 173.75 76.7466 173.75 77.504C173.75 78.2613 173.499 79.0187 172.996 79.5236C172.87 79.6499 172.996 79.6499 172.996 79.7761C173.122 79.9023 173.248 79.9023 173.248 79.7761C173.75 79.2712 174.128 78.3876 174.128 77.504Z" fill="#F2737E"/>
<path d="M175.007 77.5038C175.007 76.3677 174.504 75.3579 173.876 74.6005C173.75 74.4743 173.624 74.4743 173.624 74.6005L173.499 74.7268C173.373 74.853 173.373 74.853 173.499 74.9792C174.127 75.6104 174.504 76.6202 174.504 77.63C174.504 78.6398 174.127 79.5234 173.499 80.2808C173.373 80.407 173.499 80.407 173.499 80.5332L173.624 80.6595C173.75 80.7857 173.876 80.7857 173.876 80.6595C174.504 79.6496 175.007 78.6398 175.007 77.5038Z" fill="#F2737E"/>
<path d="M128.238 74.7266H114.786V82.4265H128.238V74.7266Z" fill="white"/>
<path d="M168.596 149.58V216.859L166.333 215.723L163.818 216.859L162.687 215.849L159.544 216.859L157.28 216.228L153.509 216.859L149.989 216.228L145.84 216.859L143.199 215.849L139.428 216.859L136.41 216.228L133.016 216.859L129.37 216.228L126.981 216.859L124.467 216.228L121.449 216.859V149.58H168.596Z" fill="#C3ACD3"/>
<path d="M160.172 159.425H128.616C128.364 159.425 128.113 159.173 128.113 158.92C128.113 158.668 128.364 158.416 128.616 158.416H160.172C160.424 158.416 160.675 158.668 160.675 158.92C160.801 159.173 160.55 159.425 160.172 159.425Z" fill="#535DAB"/>
<path d="M160.172 164.096H128.616C128.364 164.096 128.113 163.843 128.113 163.591C128.113 163.338 128.364 163.086 128.616 163.086H160.172C160.424 163.086 160.675 163.338 160.675 163.591C160.801 163.843 160.55 164.096 160.172 164.096Z" fill="#535DAB"/>
<path d="M154.138 168.64H134.902C134.776 168.64 134.65 168.514 134.65 168.388V167.63C134.65 167.504 134.776 167.378 134.902 167.378H154.138C154.263 167.378 154.389 167.504 154.389 167.63V168.388C154.263 168.514 154.138 168.64 154.138 168.64Z" fill="#535DAB"/>
<path d="M154.138 173.31H134.902C134.776 173.31 134.65 173.184 134.65 173.058V172.3C134.65 172.174 134.776 172.048 134.902 172.048H154.138C154.263 172.048 154.389 172.174 154.389 172.3V173.058C154.263 173.184 154.138 173.31 154.138 173.31Z" fill="#535DAB"/>
<path d="M144.457 205.372C139.051 205.372 134.65 200.954 134.65 195.526C134.65 190.099 139.051 185.681 144.457 185.681C149.863 185.681 154.263 190.099 154.263 195.526C154.263 200.954 149.863 205.372 144.457 205.372ZM144.457 186.564C139.554 186.564 135.405 190.604 135.405 195.653C135.405 200.576 139.428 204.741 144.457 204.741C149.36 204.741 153.509 200.702 153.509 195.653C153.509 190.604 149.486 186.564 144.457 186.564Z" fill="#535DAB"/>
<path d="M138.799 193.254L144.708 200.954L149.36 189.594L143.828 195.526L138.799 193.254Z" fill="#402961"/>
<path d="M245.664 236.551H185.442V248.921H245.664V236.551Z" fill="#9762A0"/>
<path d="M189.089 238.697H190.22C190.472 238.697 190.597 238.823 190.597 239.075V246.775C190.597 247.028 190.472 247.154 190.22 247.154H189.089C188.837 247.154 188.711 247.028 188.711 246.775V239.075C188.711 238.823 188.837 238.697 189.089 238.697Z" fill="#7C4388"/>
<path d="M202.038 238.697H203.169C203.421 238.697 203.546 238.823 203.546 239.075V246.775C203.546 247.028 203.421 247.154 203.169 247.154H202.038C201.786 247.154 201.661 247.028 201.661 246.775V239.075C201.661 238.823 201.912 238.697 202.038 238.697Z" fill="#7C4388"/>
<path d="M214.988 238.697H216.119C216.37 238.697 216.496 238.823 216.496 239.075V246.775C216.496 247.028 216.37 247.154 216.119 247.154H214.988C214.736 247.154 214.61 247.028 214.61 246.775V239.075C214.736 238.823 214.862 238.697 214.988 238.697Z" fill="#7C4388"/>
<path d="M227.937 238.697H229.069C229.32 238.697 229.446 238.823 229.446 239.075V246.775C229.446 247.028 229.32 247.154 229.069 247.154H227.937C227.686 247.154 227.56 247.028 227.56 246.775V239.075C227.686 238.823 227.812 238.697 227.937 238.697Z" fill="#7C4388"/>
<path d="M241.012 238.697H242.144C242.395 238.697 242.521 238.823 242.521 239.075V246.775C242.521 247.028 242.395 247.154 242.144 247.154H241.012C240.761 247.154 240.635 247.028 240.635 246.775V239.075C240.635 238.823 240.761 238.697 241.012 238.697Z" fill="#7C4388"/>
<path d="M232.337 224.054H172.116V236.425H232.337V224.054Z" fill="#C3ACD3"/>
<path d="M175.636 226.2H176.767C177.019 226.2 177.145 226.326 177.145 226.579V234.279C177.145 234.531 177.019 234.657 176.767 234.657H175.636C175.385 234.657 175.259 234.531 175.259 234.279V226.579C175.385 226.326 175.51 226.2 175.636 226.2Z" fill="#9886BF"/>
<path d="M188.711 226.2H189.843C190.094 226.2 190.22 226.326 190.22 226.579V234.279C190.22 234.531 190.094 234.657 189.843 234.657H188.711C188.46 234.657 188.334 234.531 188.334 234.279V226.579C188.334 226.326 188.46 226.2 188.711 226.2Z" fill="#9886BF"/>
<path d="M201.661 226.2H202.792C203.044 226.2 203.17 226.326 203.17 226.579V234.279C203.17 234.531 203.044 234.657 202.792 234.657H201.661C201.409 234.657 201.284 234.531 201.284 234.279V226.579C201.284 226.326 201.409 226.2 201.661 226.2Z" fill="#9886BF"/>
<path d="M214.611 226.2H215.742C215.994 226.2 216.119 226.326 216.119 226.579V234.279C216.119 234.531 215.994 234.657 215.742 234.657H214.611C214.359 234.657 214.233 234.531 214.233 234.279V226.579C214.233 226.326 214.359 226.2 214.611 226.2Z" fill="#9886BF"/>
<path d="M227.56 226.2H228.691C228.943 226.2 229.068 226.326 229.068 226.579V234.279C229.068 234.531 228.943 234.657 228.691 234.657H227.56C227.308 234.657 227.183 234.531 227.183 234.279V226.579C227.183 226.326 227.434 226.2 227.56 226.2Z" fill="#9886BF"/>
<path d="M237.869 211.684H177.647V224.054H237.869V211.684Z" fill="#9762A0"/>
<path d="M181.168 213.704H182.299C182.551 213.704 182.676 213.83 182.676 214.082V221.782C182.676 222.035 182.551 222.161 182.299 222.161H181.168C180.916 222.161 180.791 222.035 180.791 221.782V214.082C180.791 213.956 180.916 213.704 181.168 213.704Z" fill="#7C4388"/>
<path d="M194.117 213.704H195.249C195.5 213.704 195.626 213.83 195.626 214.082V221.782C195.626 222.035 195.5 222.161 195.249 222.161H194.117C193.866 222.161 193.74 222.035 193.74 221.782V214.082C193.74 213.956 193.992 213.704 194.117 213.704Z" fill="#7C4388"/>
<path d="M207.067 213.704H208.199C208.45 213.704 208.576 213.83 208.576 214.082V221.782C208.576 222.035 208.45 222.161 208.199 222.161H207.067C206.816 222.161 206.69 222.035 206.69 221.782V214.082C206.816 213.956 206.941 213.704 207.067 213.704Z" fill="#7C4388"/>
<path d="M220.142 213.704H221.274C221.525 213.704 221.651 213.83 221.651 214.082V221.782C221.651 222.035 221.525 222.161 221.274 222.161H220.142C219.891 222.161 219.765 222.035 219.765 221.782V214.082C219.765 213.956 219.891 213.704 220.142 213.704Z" fill="#7C4388"/>
<path d="M233.092 213.704H234.224C234.475 213.704 234.601 213.83 234.601 214.082V221.782C234.601 222.035 234.475 222.161 234.224 222.161H233.092C232.841 222.161 232.715 222.035 232.715 221.782V214.082C232.715 213.956 232.841 213.704 233.092 213.704Z" fill="#7C4388"/>
<path d="M244.91 199.188H184.688V211.558H244.91V199.188Z" fill="#C3ACD3"/>
<path d="M188.208 201.333H189.34C189.591 201.333 189.717 201.46 189.717 201.712V209.412C189.717 209.665 189.591 209.791 189.34 209.791H188.208C187.957 209.791 187.831 209.665 187.831 209.412V201.712C187.957 201.46 188.083 201.333 188.208 201.333Z" fill="#9886BF"/>
<path d="M201.283 201.333H202.415C202.666 201.333 202.792 201.46 202.792 201.712V209.412C202.792 209.665 202.666 209.791 202.415 209.791H201.283C201.032 209.791 200.906 209.665 200.906 209.412V201.712C200.906 201.46 201.032 201.333 201.283 201.333Z" fill="#9886BF"/>
<path d="M214.233 201.333H215.365C215.616 201.333 215.742 201.46 215.742 201.712V209.412C215.742 209.665 215.616 209.791 215.365 209.791H214.233C213.982 209.791 213.856 209.665 213.856 209.412V201.712C213.856 201.46 213.982 201.333 214.233 201.333Z" fill="#9886BF"/>
<path d="M227.183 201.333H228.314C228.566 201.333 228.692 201.46 228.692 201.712V209.412C228.692 209.665 228.566 209.791 228.314 209.791H227.183C226.931 209.791 226.806 209.665 226.806 209.412V201.712C226.806 201.46 226.931 201.333 227.183 201.333Z" fill="#9886BF"/>
<path d="M240.132 201.333H241.264C241.515 201.333 241.641 201.46 241.641 201.712V209.412C241.641 209.665 241.515 209.791 241.264 209.791H240.132C239.881 209.791 239.755 209.665 239.755 209.412V201.712C239.755 201.46 240.006 201.333 240.132 201.333Z" fill="#9886BF"/>
<path d="M237.869 186.69H177.647V199.061H237.869V186.69Z" fill="#9762A0"/>
<path d="M181.168 188.836H182.299C182.551 188.836 182.676 188.963 182.676 189.215V196.915C182.676 197.167 182.551 197.294 182.299 197.294H181.168C180.916 197.294 180.791 197.167 180.791 196.915V189.215C180.791 188.963 180.916 188.836 181.168 188.836Z" fill="#7C4388"/>
<path d="M194.117 188.836H195.249C195.5 188.836 195.626 188.963 195.626 189.215V196.915C195.626 197.167 195.5 197.294 195.249 197.294H194.117C193.866 197.294 193.74 197.167 193.74 196.915V189.215C193.74 188.963 193.992 188.836 194.117 188.836Z" fill="#7C4388"/>
<path d="M207.067 188.836H208.198C208.45 188.836 208.575 188.963 208.575 189.215V196.915C208.575 197.167 208.45 197.294 208.198 197.294H207.067C206.815 197.294 206.689 197.167 206.689 196.915V189.215C206.815 188.963 206.941 188.836 207.067 188.836Z" fill="#7C4388"/>
<path d="M220.142 188.836H221.274C221.525 188.836 221.651 188.963 221.651 189.215V196.915C221.651 197.167 221.525 197.294 221.274 197.294H220.142C219.891 197.294 219.765 197.167 219.765 196.915V189.215C219.765 188.963 219.891 188.836 220.142 188.836Z" fill="#7C4388"/>
<path d="M233.092 188.836H234.223C234.475 188.836 234.6 188.963 234.6 189.215V196.915C234.6 197.167 234.475 197.294 234.223 197.294H233.092C232.84 197.294 232.714 197.167 232.714 196.915V189.215C232.714 188.963 232.84 188.836 233.092 188.836Z" fill="#7C4388"/>
<path d="M241.39 174.32H181.168V186.691H241.39V174.32Z" fill="#C3ACD3"/>
<path d="M184.688 176.34H185.82C186.071 176.34 186.197 176.466 186.197 176.719V184.418C186.197 184.671 186.071 184.797 185.82 184.797H184.688C184.437 184.797 184.311 184.671 184.311 184.418V176.719C184.437 176.592 184.562 176.34 184.688 176.34Z" fill="#9886BF"/>
<path d="M197.763 176.34H198.895C199.146 176.34 199.272 176.466 199.272 176.719V184.418C199.272 184.671 199.146 184.797 198.895 184.797H197.763C197.512 184.797 197.386 184.671 197.386 184.418V176.719C197.386 176.592 197.512 176.34 197.763 176.34Z" fill="#9886BF"/>
<path d="M210.713 176.34H211.845C212.096 176.34 212.222 176.466 212.222 176.719V184.418C212.222 184.671 212.096 184.797 211.845 184.797H210.713C210.462 184.797 210.336 184.671 210.336 184.418V176.719C210.336 176.592 210.462 176.34 210.713 176.34Z" fill="#9886BF"/>
<path d="M223.663 176.34H224.794C225.046 176.34 225.172 176.466 225.172 176.719V184.418C225.172 184.671 225.046 184.797 224.794 184.797H223.663C223.411 184.797 223.286 184.671 223.286 184.418V176.719C223.286 176.592 223.411 176.34 223.663 176.34Z" fill="#9886BF"/>
<path d="M236.612 176.34H237.744C237.995 176.34 238.121 176.466 238.121 176.719V184.418C238.121 184.671 237.995 184.797 237.744 184.797H236.612C236.361 184.797 236.235 184.671 236.235 184.418V176.719C236.235 176.592 236.486 176.34 236.612 176.34Z" fill="#9886BF"/>
<path d="M243.276 168.387C240.761 172.679 237.618 174.446 237.618 174.446H224.543C224.669 174.446 245.162 165.106 243.276 168.387Z" fill="#AB3773"/>
<path d="M233.343 201.964C232.966 202.343 232.966 202.848 233.092 203.226C233.343 204.11 234.475 204.993 235.606 206.003C235.732 206.13 235.858 206.256 235.983 206.382C235.983 206.382 235.983 206.382 236.109 206.508C236.109 206.508 236.109 206.508 236.235 206.634C237.366 207.644 236.989 207.897 238.875 210.043C241.138 212.441 242.773 212.441 243.15 212.188C243.527 212.062 242.773 210.8 241.892 209.285C241.892 209.159 241.767 209.159 241.767 209.033C241.641 208.907 241.515 208.654 241.39 208.402C240.384 206.634 240.635 205.877 240.887 203.353C241.138 201.333 244.03 191.866 244.03 191.866L239.629 191.108C239.629 191.108 238.372 198.682 236.864 199.818C236.109 200.449 235.229 200.449 234.475 200.954L234.349 201.08C234.098 201.333 233.72 201.585 233.343 201.964Z" fill="#EA9C7A"/>
<path d="M233.343 201.964C232.966 202.343 232.966 202.848 233.092 203.227C233.469 204.11 234.475 204.994 235.606 206.004C235.732 206.13 235.858 206.256 235.983 206.382C235.983 206.382 235.983 206.382 236.109 206.509C236.109 206.509 236.109 206.509 236.235 206.635C237.366 207.645 236.989 207.897 238.875 210.043C241.138 212.441 242.773 212.441 243.15 212.189C243.527 212.063 242.773 210.8 241.892 209.286C241.39 209.159 239.378 208.276 237.869 206.256C236.486 204.489 235.606 202.217 234.6 200.955L234.475 201.081C234.098 201.333 233.72 201.586 233.343 201.964Z" fill="#212859"/>
<path d="M268.546 199.313C268.798 200.702 270.683 200.449 272.821 199.944C274.958 199.44 274.455 200.071 277.473 199.692C280.49 199.313 281.496 198.177 281.496 197.799C281.621 197.42 280.113 197.294 278.478 197.041C278.227 197.041 278.101 197.041 277.85 196.915C275.964 196.662 274.707 195.526 273.072 194.517C271.564 193.633 269.175 189.846 269.175 189.846L265.026 190.225C265.026 190.225 267.163 193.633 268.043 195.022C268.546 195.905 268.546 197.041 268.42 197.925C268.42 198.303 268.42 198.808 268.546 199.313Z" fill="#EA9C7A"/>
<path d="M272.82 199.818C274.958 199.313 274.455 199.944 277.472 199.566C280.49 199.187 281.495 198.051 281.495 197.672C281.621 197.294 280.113 197.167 278.478 196.915C278.478 196.915 276.592 198.177 274.078 198.304C272.066 198.304 269.803 197.799 268.42 197.799C268.42 198.304 268.294 198.808 268.42 199.187C268.797 200.576 270.683 200.449 272.82 199.818Z" fill="#212859"/>
<path d="M252.453 172.427L248.556 183.03L243.401 196.789C243.401 196.789 242.018 196.915 240.635 196.537C239.378 196.158 237.995 195.274 237.995 195.274C237.995 195.274 239.378 180.506 242.018 171.922C242.647 169.776 243.401 168.009 244.281 166.999C248.556 162.076 252.453 172.427 252.453 172.427Z" fill="#8E235E"/>
<path d="M216.748 162.581C216.748 162.581 242.647 153.745 248.43 155.639C254.213 157.532 271.563 192.118 271.563 192.118C271.563 192.118 271.186 192.623 270.054 193.002C269.049 193.381 266.66 193.381 266.66 193.381C266.66 193.381 250.944 179.874 249.184 175.961C247.299 172.048 246.544 168.261 244.658 168.64C243.527 168.892 234.726 174.32 226.806 174.32C223.788 174.32 215.365 174.32 215.365 174.32C210.461 169.019 211.844 160.561 211.844 160.561L216.748 162.581Z" fill="#AB3773"/>
<path d="M234.727 102.749C233.721 101.992 232.338 101.865 231.332 101.865C231.584 101.613 232.086 101.613 232.086 101.613C231.458 101.487 230.201 101.992 230.201 101.992C222.406 98.2049 220.143 110.07 220.143 112.847C220.143 115.624 219.891 118.78 215.617 121.052C207.319 125.344 213.354 134.432 213.354 134.432L216.622 140.996C216.622 138.724 227.812 127.742 233.469 124.586C234.978 122.693 235.607 119.411 235.732 119.159C235.355 121.809 234.727 123.324 234.224 124.208C239.127 119.916 237.618 104.642 234.727 102.749Z" fill="#232C70"/>
<path d="M231.08 123.956C231.08 123.956 228.314 124.965 226.429 124.082C224.669 123.324 223.286 120.421 223.411 120.421C224.166 120.421 225.046 119.664 225.8 115.12L226.177 115.246L231.96 117.266C231.96 117.266 231.583 119.159 231.332 120.926C230.955 122.315 230.829 123.703 231.08 123.956Z" fill="#EA9C7A"/>
<path d="M224.669 113.731C224.669 113.731 222.909 110.954 222.531 108.555C222.28 106.915 223.034 100.603 229.446 101.487C229.446 101.487 231.332 101.613 232.966 102.875C234.349 103.759 236.361 105.778 234.098 111.332L233.469 113.226L224.669 113.731Z" fill="#232C70"/>
<path d="M231.583 118.023L231.206 120.042C231.206 120.042 227.686 119.285 227.183 116.887C226.68 114.614 231.583 118.023 231.583 118.023Z" fill="#C17459"/>
<path d="M232.715 119.032C232.715 119.032 224.794 118.023 225.549 113.1C226.303 108.177 225.8 104.769 230.829 105.274C235.858 105.779 236.612 107.798 236.738 109.439C236.864 111.08 234.727 119.285 232.715 119.032Z" fill="#EA9C7A"/>
<path d="M234.349 105.652C234.349 105.652 231.332 111.08 227.937 111.459C224.543 111.837 223.16 110.701 223.16 110.701C223.16 110.701 226.051 109.06 227.057 105.652C227.183 105.652 233.218 102.749 234.349 105.652Z" fill="#232C70"/>
<path d="M233.092 106.536C233.092 106.536 234.852 107.672 235.355 108.808C235.858 110.07 236.361 112.595 237.115 112.342C237.115 112.342 238.246 108.177 236.109 106.283C233.972 104.264 233.092 106.536 233.092 106.536Z" fill="#232C70"/>
<path d="M210.713 162.708C211.09 163.844 212.473 164.222 214.233 163.97C217.628 163.591 222.531 161.319 226.177 159.804C231.709 157.406 234.098 159.678 235.858 158.163C237.618 156.649 233.846 153.24 237.115 137.588C238.246 132.287 231.206 120.926 231.206 120.926C231.206 120.926 230.703 124.208 224.04 120.295C223.788 120.169 221.148 124.082 218.633 128.878C215.868 134.18 213.227 140.618 213.982 143.9C215.365 150.085 209.456 159.173 210.713 162.708Z" fill="#7C94D8"/>
<path d="M210.713 162.707C211.09 163.843 212.473 164.222 214.234 163.969C216.497 162.96 226.554 159.047 226.429 156.396C226.303 152.483 224.543 152.356 225.8 147.56C226.806 143.647 217.502 136.452 216.119 134.937C213.353 140.239 213.228 140.491 214.108 143.773C215.365 150.084 209.456 159.173 210.713 162.707Z" fill="#617DBC"/>
<path d="M248.556 183.03L243.401 196.789C243.401 196.789 242.018 196.915 240.635 196.536C239.378 196.158 237.995 195.274 237.995 195.274C237.995 195.274 239.378 178.738 242.647 170.155C242.647 170.155 245.539 169.776 245.539 171.796C245.539 178.738 248.556 183.03 248.556 183.03Z" fill="#AB3773"/>
<path d="M231.08 120.926C231.08 120.926 237.869 122.062 238.749 125.091C239.504 127.995 244.281 145.414 244.281 145.414C244.281 145.414 240.761 146.045 239.252 144.404C237.618 142.763 233.72 129.509 233.72 129.509L231.08 120.926Z" fill="#7C94D8"/>
<path d="M223.914 120.295C223.914 120.295 217.502 120.674 215.239 123.829C212.096 128.247 205.81 147.055 209.456 149.58C213.479 152.357 227.812 150.337 227.812 150.337C227.812 150.337 228.314 148.065 227.686 147.055C227.057 145.919 216.245 144.278 215.742 143.773C215.239 143.268 221.903 134.054 221.903 132.539C221.903 131.024 223.914 120.295 223.914 120.295Z" fill="#7C94D8"/>
<path d="M224.166 155.765H251.825L256.854 138.345H229.194L224.166 155.765Z" fill="#D5DEF1"/>
<path d="M215.677 155.735H251.76V155.104H215.677V155.735Z" fill="#D5DEF1"/>
<path d="M80.9661 248.543C97.9084 248.543 111.643 234.753 111.643 217.743C111.643 200.733 97.9084 186.943 80.9661 186.943C64.0239 186.943 50.2896 200.733 50.2896 217.743C50.2896 234.753 64.0239 248.543 80.9661 248.543Z" fill="#697DBE"/>
<path d="M83.8577 247.28C100.8 247.28 114.534 233.491 114.534 216.481C114.534 199.471 100.8 185.681 83.8577 185.681C66.9155 185.681 53.1812 199.471 53.1812 216.481C53.1812 233.491 66.9155 247.28 83.8577 247.28Z" fill="#7C94D8"/>
<path d="M83.8577 240.212C96.9116 240.212 107.494 229.587 107.494 216.481C107.494 203.375 96.9116 192.75 83.8577 192.75C70.8039 192.75 60.2217 203.375 60.2217 216.481C60.2217 229.587 70.8039 240.212 83.8577 240.212Z" fill="#A8BFFF"/>
<path d="M91.6527 218.122C91.0241 217.112 90.2697 216.481 89.2639 215.976C88.3839 215.471 87.1266 215.218 85.7437 214.84H85.6179H85.4922H85.3665H85.2408C84.1093 214.587 83.1035 214.335 82.4748 214.082C81.8462 213.83 81.2176 213.451 80.8404 212.946C80.3375 212.441 80.2118 211.684 80.2118 210.8C80.2118 209.538 80.589 208.528 81.3433 207.897C82.0977 207.266 83.2292 206.887 84.8636 206.887C85.6179 206.887 86.498 207.014 87.3781 207.266C88.2581 207.518 89.0125 208.023 89.8925 208.528L92.0298 205.499C91.2755 204.994 90.5212 204.489 89.6411 204.237C88.8868 203.858 88.0067 203.605 87.2523 203.479C86.8752 203.353 86.498 203.353 86.1208 203.353V200.45H82.4748V203.479C81.5948 203.605 80.8404 203.858 80.0861 204.11C78.8289 204.741 77.9488 205.499 77.3202 206.635C76.6916 207.771 76.4401 209.159 76.4401 210.927C76.4401 212.694 76.8173 214.082 77.4459 215.092C78.2002 216.102 78.9546 216.733 79.9604 217.112C80.9662 217.49 82.2234 217.869 83.8578 218.122H83.9835C84.1093 218.122 84.1093 218.122 84.1093 218.122H84.235C84.235 218.122 84.235 218.122 84.3607 218.122C85.3665 218.248 86.1208 218.5 86.7495 218.753C87.3781 219.005 87.881 219.384 88.2581 219.889C88.6353 220.394 88.8868 221.025 88.8868 221.908C88.8868 223.297 88.5096 224.307 87.6295 224.938C86.7494 225.569 85.4922 225.948 83.8578 225.948C82.6006 225.948 81.4691 225.695 80.4633 225.19C79.4575 224.685 78.4517 223.928 77.6973 222.918L75.3086 225.821C76.0629 226.705 76.943 227.336 77.8231 227.841C78.7031 228.346 79.7089 228.851 80.7147 229.103C81.3433 229.23 81.8462 229.356 82.4748 229.482V232.512H86.1208V229.482C87.1266 229.356 88.0067 229.103 88.8868 228.851C90.144 228.346 91.1498 227.462 91.7784 226.326C92.407 225.19 92.7842 223.802 92.7842 222.161C92.5327 220.52 92.2813 219.131 91.6527 218.122Z" fill="#697DBE"/>
<path d="M285.519 257H3.89746C3.89746 252.33 7.66917 248.669 12.1952 248.669H277.221C281.747 248.669 285.519 252.33 285.519 257Z" fill="#4B96CD"/>
<defs>
<linearGradient id="paint0_linear" x1="118.357" y1="108.438" x2="106.895" y2="92.6735" gradientUnits="userSpaceOnUse">
<stop stop-color="#0F0061"/>
<stop offset="1" stop-color="#210096"/>
</linearGradient>
</defs>
</svg>
